<mxfile host="Electron" modified="2023-07-24T11:36:31.547Z" agent="Mozilla/5.0 (X11; Linux x86_64) AppleWebKit/537.36 (KHTML, like Gecko) draw.io/21.6.5 Chrome/114.0.5735.243 Electron/25.3.1 Safari/537.36" etag="qe8um8aergV0Gynvaj_5" version="21.6.5" type="device">
  <diagram name="Page-1" id="HdTL0dEIB8osQ3IMfxyS">
    <mxGraphModel dx="2206" dy="1338" grid="1" gridSize="10" guides="1" tooltips="1" connect="1" arrows="1" fold="1" page="1" pageScale="1" pageWidth="850" pageHeight="1100" math="0" shadow="0">
      <root>
        <mxCell id="0" />
        <mxCell id="1" parent="0" />
        <mxCell id="XnHms73fx8WyHb8wrXjx-15" value="x" style="rounded=0;whiteSpace=wrap;html=1;fillColor=#647687;fontColor=#ffffff;strokeColor=#314354;" vertex="1" parent="1">
          <mxGeometry x="40" y="80" width="80" height="40" as="geometry" />
        </mxCell>
        <mxCell id="XnHms73fx8WyHb8wrXjx-26" value="half" style="rounded=0;whiteSpace=wrap;html=1;fillColor=#76608a;fontColor=#ffffff;strokeColor=#432D57;" vertex="1" parent="1">
          <mxGeometry x="40" y="160" width="80" height="40" as="geometry" />
        </mxCell>
        <mxCell id="XnHms73fx8WyHb8wrXjx-27" value="integer" style="rounded=0;whiteSpace=wrap;html=1;fillColor=#647687;fontColor=#ffffff;strokeColor=#314354;" vertex="1" parent="1">
          <mxGeometry x="160" y="80" width="320" height="40" as="geometry" />
        </mxCell>
        <mxCell id="XnHms73fx8WyHb8wrXjx-28" value="0" style="rounded=0;whiteSpace=wrap;html=1;fillColor=#76608a;fontColor=#ffffff;strokeColor=#432D57;" vertex="1" parent="1">
          <mxGeometry x="160" y="160" width="320" height="40" as="geometry" />
        </mxCell>
        <mxCell id="XnHms73fx8WyHb8wrXjx-29" value="Pre-conditions" style="text;html=1;strokeColor=none;fillColor=none;align=left;verticalAlign=middle;whiteSpace=wrap;rounded=0;fontSize=24;" vertex="1" parent="1">
          <mxGeometry x="40" y="40" width="390" height="30" as="geometry" />
        </mxCell>
        <mxCell id="XnHms73fx8WyHb8wrXjx-30" value="Iterations" style="text;html=1;strokeColor=none;fillColor=none;align=center;verticalAlign=middle;whiteSpace=wrap;rounded=0;fontSize=24;" vertex="1" parent="1">
          <mxGeometry x="60" y="550" width="60" height="30" as="geometry" />
        </mxCell>
        <mxCell id="XnHms73fx8WyHb8wrXjx-42" value="half" style="rounded=0;whiteSpace=wrap;html=1;fillColor=#76608a;fontColor=#ffffff;strokeColor=#432D57;" vertex="1" parent="1">
          <mxGeometry x="40" y="600" width="80" height="40" as="geometry" />
        </mxCell>
        <mxCell id="XnHms73fx8WyHb8wrXjx-44" value="x" style="rounded=0;whiteSpace=wrap;html=1;fillColor=#647687;fontColor=#ffffff;strokeColor=#314354;" vertex="1" parent="1">
          <mxGeometry x="40" y="680" width="80" height="40" as="geometry" />
        </mxCell>
        <mxCell id="XnHms73fx8WyHb8wrXjx-45" value="1" style="rounded=0;whiteSpace=wrap;html=1;fillColor=#76608a;fontColor=#ffffff;strokeColor=#432D57;" vertex="1" parent="1">
          <mxGeometry x="160" y="600" width="160" height="40" as="geometry" />
        </mxCell>
        <mxCell id="XnHms73fx8WyHb8wrXjx-46" value="12332" style="rounded=0;whiteSpace=wrap;html=1;fillColor=#647687;fontColor=#ffffff;strokeColor=#314354;" vertex="1" parent="1">
          <mxGeometry x="160" y="680" width="160" height="40" as="geometry" />
        </mxCell>
        <mxCell id="XnHms73fx8WyHb8wrXjx-47" value="&lt;font style=&quot;font-size: 13px;&quot;&gt;half &amp;gt; x : FALSE&lt;/font&gt;" style="text;html=1;strokeColor=none;fillColor=none;align=center;verticalAlign=middle;whiteSpace=wrap;rounded=0;fontSize=13;" vertex="1" parent="1">
          <mxGeometry x="40" y="750" width="120" height="30" as="geometry" />
        </mxCell>
        <mxCell id="XnHms73fx8WyHb8wrXjx-52" value="half" style="rounded=0;whiteSpace=wrap;html=1;fillColor=#76608a;fontColor=#ffffff;strokeColor=#432D57;" vertex="1" parent="1">
          <mxGeometry x="40" y="800" width="80" height="40" as="geometry" />
        </mxCell>
        <mxCell id="XnHms73fx8WyHb8wrXjx-53" value="x" style="rounded=0;whiteSpace=wrap;html=1;fillColor=#647687;fontColor=#ffffff;strokeColor=#314354;" vertex="1" parent="1">
          <mxGeometry x="40" y="880" width="80" height="40" as="geometry" />
        </mxCell>
        <mxCell id="XnHms73fx8WyHb8wrXjx-54" value="12" style="rounded=0;whiteSpace=wrap;html=1;fillColor=#76608a;fontColor=#ffffff;strokeColor=#432D57;" vertex="1" parent="1">
          <mxGeometry x="160" y="800" width="160" height="40" as="geometry" />
        </mxCell>
        <mxCell id="XnHms73fx8WyHb8wrXjx-55" value="1233" style="rounded=0;whiteSpace=wrap;html=1;fillColor=#647687;fontColor=#ffffff;strokeColor=#314354;" vertex="1" parent="1">
          <mxGeometry x="160" y="880" width="160" height="40" as="geometry" />
        </mxCell>
        <mxCell id="XnHms73fx8WyHb8wrXjx-56" value="&lt;font style=&quot;font-size: 13px;&quot;&gt;half &amp;gt; x : FALSE&lt;/font&gt;" style="text;html=1;strokeColor=none;fillColor=none;align=center;verticalAlign=middle;whiteSpace=wrap;rounded=0;fontSize=13;" vertex="1" parent="1">
          <mxGeometry x="40" y="950" width="120" height="30" as="geometry" />
        </mxCell>
        <mxCell id="XnHms73fx8WyHb8wrXjx-57" value="half" style="rounded=0;whiteSpace=wrap;html=1;fillColor=#76608a;fontColor=#ffffff;strokeColor=#432D57;" vertex="1" parent="1">
          <mxGeometry x="40" y="1000" width="80" height="40" as="geometry" />
        </mxCell>
        <mxCell id="XnHms73fx8WyHb8wrXjx-58" value="x" style="rounded=0;whiteSpace=wrap;html=1;fillColor=#647687;fontColor=#ffffff;strokeColor=#314354;" vertex="1" parent="1">
          <mxGeometry x="40" y="1080" width="80" height="40" as="geometry" />
        </mxCell>
        <mxCell id="XnHms73fx8WyHb8wrXjx-59" value="123" style="rounded=0;whiteSpace=wrap;html=1;fillColor=#76608a;fontColor=#ffffff;strokeColor=#432D57;" vertex="1" parent="1">
          <mxGeometry x="160" y="1000" width="160" height="40" as="geometry" />
        </mxCell>
        <mxCell id="XnHms73fx8WyHb8wrXjx-60" value="123" style="rounded=0;whiteSpace=wrap;html=1;fillColor=#647687;fontColor=#ffffff;strokeColor=#314354;" vertex="1" parent="1">
          <mxGeometry x="160" y="1080" width="160" height="40" as="geometry" />
        </mxCell>
        <mxCell id="XnHms73fx8WyHb8wrXjx-61" value="&lt;font style=&quot;font-size: 13px;&quot;&gt;half &amp;gt; x: TRUE&lt;/font&gt;" style="text;html=1;strokeColor=none;fillColor=none;align=center;verticalAlign=middle;whiteSpace=wrap;rounded=0;fontSize=13;" vertex="1" parent="1">
          <mxGeometry x="42.5" y="1150" width="95" height="30" as="geometry" />
        </mxCell>
        <mxCell id="XnHms73fx8WyHb8wrXjx-62" value="&lt;font style=&quot;font-size: 13px;&quot;&gt;half == x or half == x // 10: TRUE&lt;/font&gt;" style="text;html=1;strokeColor=none;fillColor=none;align=center;verticalAlign=middle;whiteSpace=wrap;rounded=0;fontSize=13;" vertex="1" parent="1">
          <mxGeometry x="40" y="1200" width="200" height="30" as="geometry" />
        </mxCell>
        <mxCell id="XnHms73fx8WyHb8wrXjx-85" value="half = (half * 10) + (x // 10)" style="text;html=1;strokeColor=none;fillColor=none;align=center;verticalAlign=middle;whiteSpace=wrap;rounded=0;" vertex="1" parent="1">
          <mxGeometry x="40" y="350" width="160" height="30" as="geometry" />
        </mxCell>
        <mxCell id="XnHms73fx8WyHb8wrXjx-89" value="x = x // 10" style="text;html=1;strokeColor=none;fillColor=none;align=center;verticalAlign=middle;whiteSpace=wrap;rounded=0;" vertex="1" parent="1">
          <mxGeometry x="40" y="390" width="90" height="30" as="geometry" />
        </mxCell>
        <mxCell id="XnHms73fx8WyHb8wrXjx-90" value="Operations" style="text;html=1;strokeColor=none;fillColor=none;align=left;verticalAlign=middle;whiteSpace=wrap;rounded=0;fontSize=24;" vertex="1" parent="1">
          <mxGeometry x="40" y="310" width="390" height="30" as="geometry" />
        </mxCell>
        <mxCell id="XnHms73fx8WyHb8wrXjx-116" value="x = 123321" style="rounded=0;whiteSpace=wrap;html=1;fillColor=#647687;fontColor=#ffffff;strokeColor=#314354;" vertex="1" parent="1">
          <mxGeometry x="40" y="480" width="280" height="40" as="geometry" />
        </mxCell>
        <mxCell id="XnHms73fx8WyHb8wrXjx-118" value="Iterations" style="text;html=1;strokeColor=none;fillColor=none;align=center;verticalAlign=middle;whiteSpace=wrap;rounded=0;fontSize=24;" vertex="1" parent="1">
          <mxGeometry x="580" y="550" width="60" height="30" as="geometry" />
        </mxCell>
        <mxCell id="XnHms73fx8WyHb8wrXjx-119" value="half" style="rounded=0;whiteSpace=wrap;html=1;fillColor=#76608a;fontColor=#ffffff;strokeColor=#432D57;" vertex="1" parent="1">
          <mxGeometry x="560" y="600" width="80" height="40" as="geometry" />
        </mxCell>
        <mxCell id="XnHms73fx8WyHb8wrXjx-120" value="x" style="rounded=0;whiteSpace=wrap;html=1;fillColor=#647687;fontColor=#ffffff;strokeColor=#314354;" vertex="1" parent="1">
          <mxGeometry x="560" y="680" width="80" height="40" as="geometry" />
        </mxCell>
        <mxCell id="XnHms73fx8WyHb8wrXjx-121" value="1" style="rounded=0;whiteSpace=wrap;html=1;fillColor=#76608a;fontColor=#ffffff;strokeColor=#432D57;" vertex="1" parent="1">
          <mxGeometry x="680" y="600" width="160" height="40" as="geometry" />
        </mxCell>
        <mxCell id="XnHms73fx8WyHb8wrXjx-122" value="123432" style="rounded=0;whiteSpace=wrap;html=1;fillColor=#647687;fontColor=#ffffff;strokeColor=#314354;" vertex="1" parent="1">
          <mxGeometry x="680" y="680" width="160" height="40" as="geometry" />
        </mxCell>
        <mxCell id="XnHms73fx8WyHb8wrXjx-123" value="&lt;font style=&quot;font-size: 13px;&quot;&gt;half &amp;gt; x : FALSE&lt;/font&gt;" style="text;html=1;strokeColor=none;fillColor=none;align=center;verticalAlign=middle;whiteSpace=wrap;rounded=0;fontSize=13;" vertex="1" parent="1">
          <mxGeometry x="560" y="750" width="120" height="30" as="geometry" />
        </mxCell>
        <mxCell id="XnHms73fx8WyHb8wrXjx-124" value="half" style="rounded=0;whiteSpace=wrap;html=1;fillColor=#76608a;fontColor=#ffffff;strokeColor=#432D57;" vertex="1" parent="1">
          <mxGeometry x="560" y="800" width="80" height="40" as="geometry" />
        </mxCell>
        <mxCell id="XnHms73fx8WyHb8wrXjx-125" value="x" style="rounded=0;whiteSpace=wrap;html=1;fillColor=#647687;fontColor=#ffffff;strokeColor=#314354;" vertex="1" parent="1">
          <mxGeometry x="560" y="880" width="80" height="40" as="geometry" />
        </mxCell>
        <mxCell id="XnHms73fx8WyHb8wrXjx-126" value="12" style="rounded=0;whiteSpace=wrap;html=1;fillColor=#76608a;fontColor=#ffffff;strokeColor=#432D57;" vertex="1" parent="1">
          <mxGeometry x="680" y="800" width="160" height="40" as="geometry" />
        </mxCell>
        <mxCell id="XnHms73fx8WyHb8wrXjx-127" value="12343" style="rounded=0;whiteSpace=wrap;html=1;fillColor=#647687;fontColor=#ffffff;strokeColor=#314354;" vertex="1" parent="1">
          <mxGeometry x="680" y="880" width="160" height="40" as="geometry" />
        </mxCell>
        <mxCell id="XnHms73fx8WyHb8wrXjx-128" value="&lt;font style=&quot;font-size: 13px;&quot;&gt;half &amp;gt; x : FALSE&lt;/font&gt;" style="text;html=1;strokeColor=none;fillColor=none;align=center;verticalAlign=middle;whiteSpace=wrap;rounded=0;fontSize=13;" vertex="1" parent="1">
          <mxGeometry x="560" y="950" width="120" height="30" as="geometry" />
        </mxCell>
        <mxCell id="XnHms73fx8WyHb8wrXjx-129" value="half" style="rounded=0;whiteSpace=wrap;html=1;fillColor=#76608a;fontColor=#ffffff;strokeColor=#432D57;" vertex="1" parent="1">
          <mxGeometry x="560" y="1000" width="80" height="40" as="geometry" />
        </mxCell>
        <mxCell id="XnHms73fx8WyHb8wrXjx-130" value="x" style="rounded=0;whiteSpace=wrap;html=1;fillColor=#647687;fontColor=#ffffff;strokeColor=#314354;" vertex="1" parent="1">
          <mxGeometry x="560" y="1080" width="80" height="40" as="geometry" />
        </mxCell>
        <mxCell id="XnHms73fx8WyHb8wrXjx-131" value="123" style="rounded=0;whiteSpace=wrap;html=1;fillColor=#76608a;fontColor=#ffffff;strokeColor=#432D57;" vertex="1" parent="1">
          <mxGeometry x="680" y="1000" width="160" height="40" as="geometry" />
        </mxCell>
        <mxCell id="XnHms73fx8WyHb8wrXjx-132" value="1234" style="rounded=0;whiteSpace=wrap;html=1;fillColor=#647687;fontColor=#ffffff;strokeColor=#314354;" vertex="1" parent="1">
          <mxGeometry x="680" y="1080" width="160" height="40" as="geometry" />
        </mxCell>
        <mxCell id="XnHms73fx8WyHb8wrXjx-133" value="&lt;font style=&quot;font-size: 13px;&quot;&gt;half &amp;gt; x: TRUE&lt;/font&gt;" style="text;html=1;strokeColor=none;fillColor=none;align=center;verticalAlign=middle;whiteSpace=wrap;rounded=0;fontSize=13;" vertex="1" parent="1">
          <mxGeometry x="560" y="1360" width="90" height="30" as="geometry" />
        </mxCell>
        <mxCell id="XnHms73fx8WyHb8wrXjx-134" value="&lt;font style=&quot;font-size: 13px;&quot;&gt;half == x or half == x // 10: TRUE&lt;/font&gt;" style="text;html=1;strokeColor=none;fillColor=none;align=center;verticalAlign=middle;whiteSpace=wrap;rounded=0;fontSize=13;" vertex="1" parent="1">
          <mxGeometry x="560" y="1410" width="200" height="30" as="geometry" />
        </mxCell>
        <mxCell id="XnHms73fx8WyHb8wrXjx-135" value="&lt;font style=&quot;font-size: 13px;&quot;&gt;half &amp;gt; x : FALSE&lt;/font&gt;" style="text;html=1;strokeColor=none;fillColor=none;align=center;verticalAlign=middle;whiteSpace=wrap;rounded=0;fontSize=13;" vertex="1" parent="1">
          <mxGeometry x="560" y="1160" width="120" height="30" as="geometry" />
        </mxCell>
        <mxCell id="XnHms73fx8WyHb8wrXjx-136" value="half" style="rounded=0;whiteSpace=wrap;html=1;fillColor=#76608a;fontColor=#ffffff;strokeColor=#432D57;" vertex="1" parent="1">
          <mxGeometry x="560" y="1210" width="80" height="40" as="geometry" />
        </mxCell>
        <mxCell id="XnHms73fx8WyHb8wrXjx-137" value="x" style="rounded=0;whiteSpace=wrap;html=1;fillColor=#647687;fontColor=#ffffff;strokeColor=#314354;" vertex="1" parent="1">
          <mxGeometry x="560" y="1290" width="80" height="40" as="geometry" />
        </mxCell>
        <mxCell id="XnHms73fx8WyHb8wrXjx-138" value="1234" style="rounded=0;whiteSpace=wrap;html=1;fillColor=#76608a;fontColor=#ffffff;strokeColor=#432D57;" vertex="1" parent="1">
          <mxGeometry x="680" y="1210" width="160" height="40" as="geometry" />
        </mxCell>
        <mxCell id="XnHms73fx8WyHb8wrXjx-139" value="123" style="rounded=0;whiteSpace=wrap;html=1;fillColor=#647687;fontColor=#ffffff;strokeColor=#314354;" vertex="1" parent="1">
          <mxGeometry x="680" y="1290" width="160" height="40" as="geometry" />
        </mxCell>
        <mxCell id="XnHms73fx8WyHb8wrXjx-140" value="if x &amp;lt; 0 or (x % 10 == 0 and x != 0): False" style="text;html=1;strokeColor=none;fillColor=none;align=center;verticalAlign=middle;whiteSpace=wrap;rounded=0;" vertex="1" parent="1">
          <mxGeometry x="40" y="230" width="280" height="30" as="geometry" />
        </mxCell>
        <mxCell id="XnHms73fx8WyHb8wrXjx-142" value="Iterations" style="text;html=1;strokeColor=none;fillColor=none;align=center;verticalAlign=middle;whiteSpace=wrap;rounded=0;fontSize=24;" vertex="1" parent="1">
          <mxGeometry x="1100" y="550" width="60" height="30" as="geometry" />
        </mxCell>
        <mxCell id="XnHms73fx8WyHb8wrXjx-143" value="half" style="rounded=0;whiteSpace=wrap;html=1;fillColor=#76608a;fontColor=#ffffff;strokeColor=#432D57;" vertex="1" parent="1">
          <mxGeometry x="1080" y="600" width="80" height="40" as="geometry" />
        </mxCell>
        <mxCell id="XnHms73fx8WyHb8wrXjx-144" value="x" style="rounded=0;whiteSpace=wrap;html=1;fillColor=#647687;fontColor=#ffffff;strokeColor=#314354;" vertex="1" parent="1">
          <mxGeometry x="1080" y="680" width="80" height="40" as="geometry" />
        </mxCell>
        <mxCell id="XnHms73fx8WyHb8wrXjx-145" value="1" style="rounded=0;whiteSpace=wrap;html=1;fillColor=#76608a;fontColor=#ffffff;strokeColor=#432D57;" vertex="1" parent="1">
          <mxGeometry x="1200" y="600" width="160" height="40" as="geometry" />
        </mxCell>
        <mxCell id="XnHms73fx8WyHb8wrXjx-146" value="1010" style="rounded=0;whiteSpace=wrap;html=1;fillColor=#647687;fontColor=#ffffff;strokeColor=#314354;" vertex="1" parent="1">
          <mxGeometry x="1200" y="680" width="160" height="40" as="geometry" />
        </mxCell>
        <mxCell id="XnHms73fx8WyHb8wrXjx-147" value="&lt;font style=&quot;font-size: 13px;&quot;&gt;half &amp;gt; x : FALSE&lt;/font&gt;" style="text;html=1;strokeColor=none;fillColor=none;align=center;verticalAlign=middle;whiteSpace=wrap;rounded=0;fontSize=13;" vertex="1" parent="1">
          <mxGeometry x="1080" y="750" width="120" height="30" as="geometry" />
        </mxCell>
        <mxCell id="XnHms73fx8WyHb8wrXjx-148" value="half" style="rounded=0;whiteSpace=wrap;html=1;fillColor=#76608a;fontColor=#ffffff;strokeColor=#432D57;" vertex="1" parent="1">
          <mxGeometry x="1080" y="800" width="80" height="40" as="geometry" />
        </mxCell>
        <mxCell id="XnHms73fx8WyHb8wrXjx-149" value="x" style="rounded=0;whiteSpace=wrap;html=1;fillColor=#647687;fontColor=#ffffff;strokeColor=#314354;" vertex="1" parent="1">
          <mxGeometry x="1080" y="880" width="80" height="40" as="geometry" />
        </mxCell>
        <mxCell id="XnHms73fx8WyHb8wrXjx-150" value="10" style="rounded=0;whiteSpace=wrap;html=1;fillColor=#76608a;fontColor=#ffffff;strokeColor=#432D57;" vertex="1" parent="1">
          <mxGeometry x="1200" y="800" width="160" height="40" as="geometry" />
        </mxCell>
        <mxCell id="XnHms73fx8WyHb8wrXjx-151" value="101" style="rounded=0;whiteSpace=wrap;html=1;fillColor=#647687;fontColor=#ffffff;strokeColor=#314354;" vertex="1" parent="1">
          <mxGeometry x="1200" y="880" width="160" height="40" as="geometry" />
        </mxCell>
        <mxCell id="XnHms73fx8WyHb8wrXjx-152" value="&lt;font style=&quot;font-size: 13px;&quot;&gt;half &amp;gt; x : FALSE&lt;/font&gt;" style="text;html=1;strokeColor=none;fillColor=none;align=center;verticalAlign=middle;whiteSpace=wrap;rounded=0;fontSize=13;" vertex="1" parent="1">
          <mxGeometry x="1080" y="950" width="120" height="30" as="geometry" />
        </mxCell>
        <mxCell id="XnHms73fx8WyHb8wrXjx-153" value="half" style="rounded=0;whiteSpace=wrap;html=1;fillColor=#76608a;fontColor=#ffffff;strokeColor=#432D57;" vertex="1" parent="1">
          <mxGeometry x="1080" y="1000" width="80" height="40" as="geometry" />
        </mxCell>
        <mxCell id="XnHms73fx8WyHb8wrXjx-154" value="x" style="rounded=0;whiteSpace=wrap;html=1;fillColor=#647687;fontColor=#ffffff;strokeColor=#314354;" vertex="1" parent="1">
          <mxGeometry x="1080" y="1080" width="80" height="40" as="geometry" />
        </mxCell>
        <mxCell id="XnHms73fx8WyHb8wrXjx-155" value="101" style="rounded=0;whiteSpace=wrap;html=1;fillColor=#76608a;fontColor=#ffffff;strokeColor=#432D57;" vertex="1" parent="1">
          <mxGeometry x="1200" y="1000" width="160" height="40" as="geometry" />
        </mxCell>
        <mxCell id="XnHms73fx8WyHb8wrXjx-156" value="10" style="rounded=0;whiteSpace=wrap;html=1;fillColor=#647687;fontColor=#ffffff;strokeColor=#314354;" vertex="1" parent="1">
          <mxGeometry x="1200" y="1080" width="160" height="40" as="geometry" />
        </mxCell>
        <mxCell id="XnHms73fx8WyHb8wrXjx-157" value="&lt;font style=&quot;font-size: 13px;&quot;&gt;half &amp;gt; x: TRUE&lt;/font&gt;" style="text;html=1;strokeColor=none;fillColor=none;align=center;verticalAlign=middle;whiteSpace=wrap;rounded=0;fontSize=13;" vertex="1" parent="1">
          <mxGeometry x="1080" y="1160" width="100" height="30" as="geometry" />
        </mxCell>
        <mxCell id="XnHms73fx8WyHb8wrXjx-158" value="&lt;font style=&quot;font-size: 13px;&quot;&gt;half == x or half == x // 10: TRUE&lt;/font&gt;" style="text;html=1;strokeColor=none;fillColor=none;align=center;verticalAlign=middle;whiteSpace=wrap;rounded=0;fontSize=13;" vertex="1" parent="1">
          <mxGeometry x="1080" y="1210" width="200" height="30" as="geometry" />
        </mxCell>
        <mxCell id="XnHms73fx8WyHb8wrXjx-164" value="x = 123321" style="rounded=0;whiteSpace=wrap;html=1;fillColor=#647687;fontColor=#ffffff;strokeColor=#314354;" vertex="1" parent="1">
          <mxGeometry x="560" y="480" width="280" height="40" as="geometry" />
        </mxCell>
        <mxCell id="XnHms73fx8WyHb8wrXjx-165" value="x = 10101" style="rounded=0;whiteSpace=wrap;html=1;fillColor=#647687;fontColor=#ffffff;strokeColor=#314354;" vertex="1" parent="1">
          <mxGeometry x="1080" y="480" width="280" height="40" as="geometry" />
        </mxCell>
      </root>
    </mxGraphModel>
  </diagram>
</mxfile>
